<svg xmlns="http://www.w3.org/2000/svg" xmlns:xlink="http://www.w3.org/1999/xlink" xmlns:fi="http://pattern.flaticon.com/" x="0" y="0" width="1200" height="600" viewBox="0 0 1680 840"><rect x="0px" y="0px" width="100%" height="100%" opacity="0.46" fill="#ffffff"/><defs><g transform="matrix(1.4488887394336025 0.3882285676537811 -0.3882285676537811 1.4488887394336025 317.44031233373 285.0064292160365)" id="L1_463" fill="#000000"><path d="m12 19c0 2.209139 1.790861 4 4 4s4-1.790861 4-4-1.790861-4-4-4-4 1.790861-4 4zm6 0c0 1.1045695-.8954305 2-2 2s-2-.8954305-2-2 .8954305-2 2-2 2 .8954305 2 2z" id="L1_459" fill="#5269ff"/><path d="m19.46 23.184c-.0503011.0112606-.0994964.0269897-.147.047l-4 1.636c-1.0270956.3977325-1.8169205 1.2418987-2.1455339 2.2931501-.3286135 1.0512515-.1601837 2.194961.4575339 3.1068499.6215924.939902 1.457974 1.7183538 2.44 2.271.9656165.5179824 2.1040236.6079234 3.139.248 1.488-.507 3.418-1.411 4.163-2.834.713-1.362 1.031-4.108-.225-5.721-.8876139-1.0846509-2.356482-1.5023328-3.682-1.047zm2.14 5.838c-.7857026.9332562-1.8508685 1.5889047-3.038 1.87-.5043789.1789828-1.0606428.1387316-1.534-.111-.7046046-.4015177-1.303458-.9650637-1.747-1.644-.2766104-.4131457-.3476413-.9306239-.1925838-1.4030219.1550574-.472398.5189403-.8471224.9865838-1.0159781l3.925-1.605c1.113-.244 1.455.2 1.569.345.5650339 1.1182883.5764959 2.4360522.031 3.564z" id="L1_460" fill="#5269ff"/><path d="m28 20c-1.6568542 0-3 1.3431458-3 3s1.3431458 3 3 3 3-1.3431458 3-3-1.3431458-3-3-3zm0 4c-.5522847 0-1-.4477153-1-1s.4477153-1 1-1 1 .4477153 1 1-.4477153 1-1 1z" id="L1_461" fill="#5269ff"/><path d="m29.5 17.519c1.684-1.637 2.5-3.056 2.5-4.338 0-3.481-5.536-3.581-6.167-3.581s-6.166.1-6.166 3.583c0 1.283.818 2.7 2.5 4.338 2.0491749 1.9663781 5.284898 1.9654956 7.333-.002zm-3.667-5.919c1.453 0 4.167.464 4.167 1.583 0 .319-.185 1.24-1.9 2.9-1.2691811 1.2166671-3.2718189 1.2166671-4.541 0-1.71-1.662-1.895-2.584-1.895-2.9.003-1.115 2.717-1.583 4.169-1.583z" id="L1_462" fill="#5269ff"/><path d="m2.558 25.414c.29473507 1.1669957.70614038 2.3013755 1.228 3.386-.5385536.8230438-.83928028 1.7788633-.869 2.762-.10583457 1.9152947 1.16023693 3.6370681 3.02 4.107 1.24491056.3776629 2.56744239.4200915 3.834.123 1.4517894 1.017553 3.0482941 1.811086 4.736 2.354-.7089399.7225949-1.2566457 1.5872679-1.607 2.537-.2967144.9158507-.2142398 1.9123888.229 2.767.718697 1.2537917 2.0761035 2.002679 3.52 1.942.124 0 .248-.025.372-.035v11.643c0 1.6568542 1.3431458 3 3 3s3-1.3431458 3-3v-11.636c1.5667775.2007766 3.1019641-.5538266 3.9-1.917.4413056-.8489922.5244902-1.839285.231-2.75-.3521607-.9608863-.9051158-1.8356599-1.622-2.566 1.5811822-.5141203 3.0829699-1.246166 4.462-2.175.2110695.0255172.4234013.0392052.636.041.7931418-.0128149 1.581709-.1229725 2.348-.328 1.860784-.4692525 3.1276272-2.1919244 3.021-4.108-.0310521-.5798817-.1448709-1.152343-.338-1.7.7432383-1.3024955 1.3175273-2.694365 1.709-4.142.5310568-.2295881.9830653-.6099706 1.3-1.094.8823889-1.4827661 1.5310012-3.09266 1.923-4.773.2217806-.9431374.0201201-1.9360963-.552-2.718-.7102134-.8294719-1.7269665-1.3347805-2.817-1.4-.3294482-1.0713019-.7590096-2.1092135-1.283-3.1.7709268-.8894973 1.2023726-2.0230168 1.218-3.2.1012718-1.91337601-1.1652139-3.63107084-3.023-4.1-2.45-.62-3.9-.279-4.759.307-.9490336-.58326552-1.9519887-1.07385955-2.995-1.465-.3-1.632-1.745-3-4.155-3.913-1.3739049-.53321094-2.9312228-.24312611-4.021.749-.6428135.59705374-1.0667619 1.39248509-1.204 2.259-1.5507488.25749854-3.0603331.72022698-4.489 1.376-.784488-.29928116-1.6014208-.50536035-2.434-.614-1.04917934-.14053213-2.10761472.18210818-2.9.884-1.33774787 1.12652047-2.36297829 2.57844235-2.977 4.216-.33599021.9229438-.23137116 1.9488736.284 2.785-.89149304 1.5108041-1.55561881 3.1446681-1.971 4.849-1.47005634.7282245-2.43137285 2.1944904-2.513 3.833 0 2.663.136 4.294 2.558 4.814zm3.869 8.315c-.93222288-.2319235-1.56787345-1.0938724-1.514-2.053.114-1.965 1.12-2.343 1.451-2.467.67231575-.227192 1.4152913-.0549022 1.919.445.855.809 2.2 2.357 1.643 3.632-.476 1.078-2.604.669-3.499.443zm13.595 24.271c-.5522847 0-1-.4477153-1-1v-12.273c.3700519-.2083356.7070702-.4705358 1-.778.2935483.3067798.6304594.5688966 1 .778v12.273c0 .5522847-.4477153 1-1 1zm5.107-15.45c-.6453463.8378089-1.7895642 1.1086322-2.742.649-.6793788-.259692-1.2013158-.8177774-1.415-1.513-.1348836-.4103745-.5180268-.6877501-.95-.6877501s-.8151164.2773756-.95.6877501c-.2139758.6959536-.7367166 1.2544783-1.417 1.514-.9508091.457285-2.0918702.1880646-2.738-.646-.712-1.428.752-2.574 1.738-3.874 2.2224582.4295381 4.5069582.425803 6.728-.011.96 1.281 2.465 2.451 1.746 3.881zm7.353-8.821c-1.111.281-3.04.6-3.5-.443-.561-1.275.788-2.823 1.643-3.632.5039438-.4994765 1.2466605-.6717062 1.919-.445.331.124 1.337.5 1.451 2.467.0539751.9588313-.5811766 1.8206729-1.513 2.053zm6.162-14.371c-.340398 1.4728197-.903546 2.8850737-1.67 4.188-.1308313.2063351-.3347769.3556332-.571.418-.0845561.0189087-.1705029.0309479-.257.036-.3296075.0099064-.6411867-.1502265-.825-.424-1.254-1.856-1.662-3.8-1.04-4.96.3974339-.6664432 1.1464537-1.0405625 1.918-.958.8056027-.0810679 1.6102132.1630153 2.235.678.2046631.2985328.2803662.6669543.21 1.022zm-5.008-12.088c.929068.23313952 1.563896 1.09032484 1.516 2.047-.019411.50940944-.1422341 1.0095478-.361 1.47-.9738855-1.41353312-2.1450972-2.68038135-3.478-3.762.7827078-.05511119 1.5690101.02781781 2.323.245zm-14.07-4.806c.5329774-.46950393 1.2851453-.59834751 1.944-.333 1.1.415 2.944 1.32 2.919 2.714-.02 1.135-1.922 1.592-3.054 1.763-.9493945.14652834-1.8688611-.40263252-2.19-1.308-.656-1.855.125-2.593.381-2.836zm-2.466 2.815c.0545567.23202464.1213161.46100952.2.686.6423957 1.80862485 2.4773314 2.90748918 4.375 2.62 2.725-.412 3.917-1.424 4.417-2.385 4.2412758 1.7532833 7.5296907 5.2375108 9.035 9.573-1.111588.207142-2.0700768.9054276-2.608 1.9-.984 1.831-.545 4.523 1.145 7.026.3812828.5560771.9418294.9644854 1.588 1.157-.2350133.7332746-.5237969 1.4482144-.864 2.139-1.513787-1.253741-3.7296206-1.1631403-5.136.21-2.136 2.022-2.88 4.113-2.1 5.89.1458077.3289133.3489738.6292604.6.887-3.4599693 1.9334708-7.5167177 2.5068427-11.377 1.608h-.008c-1.7258195-.3994942-3.3714537-1.0885845-4.867-2.038.0989965-.1458508.1856313-.2997196.259-.46.782-1.777.038-3.868-2.1-5.89-1.06005075-1.0260971-2.61070369-1.3614258-4-.865-.1.039-.2.092-.3.138-.26866489-.6119065-.49845469-1.2401545-.688-1.881 2.09064063-.0236941 3.98115856-1.2479777 4.858-3.146.5772705-1.1124608.6199181-2.4264475.116-3.574-.50912308-1.4567095-1.64462449-2.608359-3.094-3.138-.544301-.1453146-1.11767257-.1415152-1.66.011.2894819-.832795.64806338-1.6399379 1.072-2.413.6403472.4279837 1.39182338.6594745 2.162.666.20633269-.0003454.4123126-.0170646.616-.05 2.017-.33 5.595-1.179 6.9-3.165.4899549-.7297467.6429163-1.634768.42-2.485-.230851-.9111281-.7255213-1.73383922-1.422-2.365.8012711-.28477001 1.6242968-.50415434 2.461-.656zm-11 4.487c.50221705-1.30252894 1.32823173-2.45550776 2.4-3.35.35859063-.31664986.83671717-.46253134 1.311-.4 1.4.19 3.825.8 4.318 2.773.0894572.30706828.0346455.63814539-.149.9-.629.955-2.757 1.833-5.552 2.29-.32750158.0562015-.66428728.015537-.969-.117-1.797-.801-1.482-1.742-1.365-2.096zm-.813 7.942c.23138797-.0848645.48213281-.102205.723-.05.923.265 1.534 1.381 1.817 2.023.25575836.5896988.2355986 1.2626681-.055 1.836-.53464304 1.2567934-1.76523418 2.0754843-3.131 2.083-.395 0-.725 0-1.011-.011-.12630116-.0346305-.25839379-.0428012-.388-.024-1.236-.121-1.242-.64-1.242-2.965 0-1.729 2.512-2.651 3.281-2.892z" id="L1_464" fill="#5269ff"/></g><g transform="matrix(0.45459939269695515 -0.05682492298766738 0.05682492298766738 0.45459939269695515 73.17690001647675 337.58919223024014)" id="L1_498" fill="#000000"><path d="m14.807 40.007c-.3981589.5015547-.70577 1.0687231-.909 1.676-.2967144.9158507-.2142398 1.9123888.229 2.767.718697 1.2537917 2.0761035 2.002679 3.52 1.942.125 0 .25-.025.375-.035v11.643c0 1.6568542 1.3431458 3 3 3s3-1.3431458 3-3v-11.636c1.5641466.1979436 3.0955405-.5563427 3.892-1.917.4407132-.8494812.524222-1.8397082.232-2.751-.2034839-.6169181-.5153675-1.1925989-.921-1.7 9.3433815-3.0614212 15.0757714-12.4600098 13.5209845-22.168445-1.5547869-9.70843525-9.9355426-16.84683123-19.7676831-16.83733005-9.8321405.00950119-18.19908433 7.16408112-19.73510508 16.87550315-1.53602074 9.7114219 4.21452293 19.0989142 13.56380368 22.1422719zm6.215 18.993c-.5522847 0-1-.4477153-1-1v-12.274c.3695469-.2086889.7064695-.4704778 1-.777.2929486.3079972.6299464.5708554 1 .78v12.271c0 .5522847-.4477153 1-1 1zm5.217-16.7c.1340159.4153511.0932198.8673571-.113 1.252-.6453463.8378089-1.7895642 1.1086322-2.742.649-.679207-.2599474-1.2010495-.8179317-1.415-1.513-.1348836-.4103745-.5180268-.6877501-.95-.6877501s-.8151164.2773756-.95.6877501c-.214239.6953485-.7369957 1.2531524-1.417 1.512-.9508091.457285-2.0918702.1880646-2.738-.646-.544-1.091.191-2.031 1-2.977 2.706585.5668407 5.5015253.5641163 8.207-.008.4861283.4952684.8664974 1.0841941 1.118 1.731zm1.888-4.776c-1.6747423-.8804189-2.5008588-2.8160073-1.9779721-4.6343826.5228868-1.8183753 2.2509823-3.019482 4.1375819-2.8758116s3.4128861 1.5926082 3.6543902 3.4691942c-1.6530297 1.7161601-3.6288693 3.0887807-5.814 4.039zm10.873-16.524c-.0051246 1.6024605-.2250842 3.1969996-.654 4.741-.4301895.1639563-.885685.2516036-1.346.259-1.6589706.0082272-3.1508369-1.008448-3.7499226-2.5554927-.5990857-1.5470448-.181034-3.3033267 1.0508058-4.4145521s3.0217649-1.3467284 4.4991168-.5919552c.1279993.8481011.1948384 1.7043097.2 2.562zm-12.4-17.1c2.5611581.84478791 4.8999959 2.25376341 6.844 4.123-.6978005 1.30166212-2.0560772 2.1129012-3.53298 2.1100939-1.4769028-.0028072-2.8320857-.81920392-3.5249329-2.12350934-.6928471-1.30430542-.6106069-2.88426141.2139129-4.10958456zm-1.965-.53c-.9190273 1.85408982-.8134425 4.0516738.279104 5.8091158s3.016537 2.8245803 5.085896 2.8208842c1.91856-.0105587 3.7175517-.9336327 4.845-2.486 1.613643 1.9470359 2.7981285 4.2127564 3.476 6.649-2.3168327-.532463-4.7293446.3550563-6.148758 2.2620163-1.4194133 1.9069599-1.5772711 4.4726928-.4023314 6.5392714s3.4604578 3.2431462 5.8250894 2.9987123c-.5516725 1.293204-1.253132 2.5172341-2.09 3.647-.9540479-2.2450948-3.1723881-3.6890914-5.6115143-3.6527342-2.4391261.0363571-4.6134425 1.5458296-5.5001516 3.8183624-.8867091 2.2725327-.3092796 4.8556964 1.4606659 6.5343718-6.8059415 1.9310862-14.1108143-.3260925-18.641-5.76 2.9865964-1.2291924 4.4585999-4.6068434 3.3257761-7.6313074-1.13282384-3.024464-4.46155313-4.6039834-7.5207761-3.5686926 0-.117-.018-.229-.018-.346.00200488-1.9117242.31024345-3.8107844.913-5.625 1.66591744 1.5454901 4.06254069 2.0160288 6.1891327 1.2151374 2.126592-.8008914 3.6174262-2.7354774 3.849988-4.9959498.2325618-2.26047244-.8331443-4.45808028-2.7521207-5.6751876 3.9641931-2.59496278 8.7952725-3.51299373 13.435-2.553zm-21.45 20.067c.5615007-.2883039 1.18380994-.4381382 1.815-.437 2.01939032-.0034396 3.72313973 1.502052 3.96828201 3.5065106.24514228 2.0044587-1.0455803 3.8761697-3.00628201 4.3594894-1.47010512-2.2372355-2.41911317-4.7760114-2.777-7.429zm6.215-16.174c1.8148873.67279431 2.8858965 2.55035119 2.5412527 4.4550004-.3446437 1.9046493-2.00568201 3.2878457-3.9412527 3.2819996-1.29226326-.0020521-2.50421734-.6272044-3.255-1.679 1.10240871-2.3278768 2.68950759-4.39332143 4.655-6.058z" id="L1_465"/><path d="m17 28c-2.209139 0-4 1.790861-4 4s1.790861 4 4 4 4-1.790861 4-4-1.790861-4-4-4zm0 6c-1.1045695 0-2-.8954305-2-2s.8954305-2 2-2 2 .8954305 2 2-.8954305 2-2 2z" id="L1_466"/><path d="m19 11c1.6568542 0 3-1.34314575 3-3s-1.3431458-3-3-3-3 1.34314575-3 3 1.3431458 3 3 3zm0-4c.5522847 0 1 .44771525 1 1s-.4477153 1-1 1-1-.44771525-1-1 .4477153-1 1-1z" id="L1_467"/><path d="m14 20c0 3.8659932 3.1340068 7 7 7s7-3.1340068 7-7-3.1340068-7-7-7c-3.8641657.0044086-6.9955914 3.1358343-7 7zm12 0c0 2.7614237-2.2385763 5-5 5s-5-2.2385763-5-5 2.2385763-5 5-5c2.7600532.0033061 4.9966939 2.2399468 5 5z" id="L1_469"/></g><path d="m52.806 28.894c-3.9304542 1.4920303-8.1630191 2.013125-12.338 1.519-12.0180105-1.3103869-21.4481329-10.9078065-22.547-22.947-.0246667-.308-.0446667-.615-.06-.921-.1178983-2.46030247-1.7830347-4.57515015-4.147-5.267-2.3796178-.77103138-4.98640453.05119242-6.493 2.048-4.62722736 6.1302507-6.79903056 13.7672237-6.09 21.415 1.369 14.969 13.898 27.081 29.153 28.174.8.0573333 1.5963333.0856667 2.389.085 11.341293.0748826 21.8491964-5.9463801 27.519-15.769 1.2712585-2.1035416 1.0359132-4.7877724-.582-6.638-1.6694318-1.9661042-4.406272-2.6495098-6.804-1.699zm-7.869 3.654c.4628675 1.485037 1.1035122 2.9086921 1.908 4.24 1.5403065 2.5402639 3.6318458 4.701863 6.12 6.325-3.5044906 3.249993-7.7488206 5.596131-12.365 6.835-1.7649766-3.4611109-2.8688555-7.2210818-3.255-11.087 1.6765638-.1728499 3.3275238-.5389469 4.92-1.091.3372587-.1178976.586001-.4067649.652528-.7577884.066527-.3510234-.0592683-.7108742-.33-.944s-.6452693-.3041093-.982528-.1862116c-1.4198296.4917005-2.8909325.8204761-4.385.98-.0599181-1.6502921.0102993-3.3027399.21-4.942.9274358.2083007 1.8650205.3685145 2.809.48 1.5594189.1763261 3.1305747.2258219 4.698.148zm-41.813-7.988c-.26938194-2.954518-.08355038-5.9328818.551-8.831 4.05743374-2.2704323 8.7463251-3.1508945 13.351-2.507.5128146 1.6781465 1.1890544 3.3019259 2.019 4.848-1.335107.0936055-2.6596697.3020426-3.959.623-.047-.56-.086-1.122-.086-1.693 0-.3333333.0083333-.6666667.025-1 .0276142-.5522847-.3977153-1.0223857-.95-1.05-.5522847-.0276142-1.0223858.3977153-1.05.95-.0166667.3653333-.025.732-.025 1.1-.0002708.7554934.0384473 1.5104975.116 2.262-3.85053545 1.3003602-7.25022287 3.6721625-9.8 6.837-.079-.509-.145-1.022-.192-1.539zm6.976-1.729c1.0571905-.6185042 2.1692469-1.138044 3.322-1.552.5438369 2.7382651 1.6066133 5.3471756 3.131 7.686-3.0861877 3.2709071-5.358844 7.2225338-6.634 11.535-2.90797402-3.3902636-4.98895977-7.4094861-6.079-11.741 1.61883893-2.4178062 3.75765059-4.4431857 6.26-5.928zm5.255-2.155c1.5858324-.4050891 3.2134878-.6238997 4.85-.652.8664076 1.3328957 1.8474612 2.5876538 2.932 3.75-1.8455653 1.042582-3.5640373 2.2956135-5.121 3.734-1.3042256-2.0921004-2.206982-4.4090169-2.662-6.832zm9.269 4.571c1.4316237 1.3224742 2.9989937 2.489957 4.676 3.483-1.4557415 1.8237271-2.7144158 3.7963765-3.755 5.885-2.4850435-1.3474532-4.6582568-3.2034415-6.378-5.447 1.636934-1.5429318 3.471662-2.8614744 5.456-3.921zm6.459 4.46c1.4146576.6994566 2.8867235 1.2762388 4.4 1.724-.2376128 1.8428368-.3209023 3.7022993-.249 5.559-.077 0-.153.01-.23.01-2.627.0013215-5.2281786-.5183704-7.653-1.529 1.02654-2.0534781 2.2778702-3.9866507 3.731-5.764zm-22.266-25.176c.71221701-.97429892 1.8512158-1.54454326 3.058-1.531.4233365.00059595.8442457.06395137 1.249.188 1.5611766.44067314 2.6647492 1.83152103 2.739 3.452.016.33.037.661.065.992.1061225 1.18072288.2912033 2.35301281.554 3.509-4.1409189-.4263474-8.32065368.2584815-12.109 1.984.9853674-3.0950797 2.48796056-6.00085958 4.444-8.594zm2.713 37.708c1.0550041-4.3359177 3.1922786-8.3335018 6.212-11.619 1.8937071 2.3967044 4.2626613 4.3758264 6.958 5.813-1.7113977 3.9868374-2.6265739 8.2698888-2.694 12.608-3.929984-1.5083422-7.4991151-3.8257563-10.476-6.802zm18.9 8.681c-2.1751365-.1561101-4.3260887-.5542358-6.413-1.187-.0304077-4.2737058.8181589-8.5080294 2.493-12.44 2.6880964 1.1286705 5.574566 1.7090243 8.49 1.707.118 0 .233-.013.351-.015.3906559 3.9741962 1.4935789 7.8456051 3.256 11.429-2.6922778.5323946-5.4436354.7025678-8.181.506zm28.03-14.69c-1.1343276 1.9585022-2.4891489 3.7807-4.038 5.431-2.3954143-1.4788694-4.4060691-3.5046032-5.867-5.911-.645907-1.0621299-1.1749866-2.191034-1.578-3.367 2.2375007-.273484 4.43355-.8174596 6.54-1.62 1.6069321-.6425573 3.4446581-.1896618 4.569 1.126 1.055606 1.2116202 1.2068138 2.9666825.374 4.341z" transform="matrix(0.6666666865348816 0 0 0.6666666865348816 155 330)" id="L1_471" fill="#000000"/><g transform="matrix(0.3333333432674408 0 0 0.3333333432674408 252.5 340)" id="L1_474" fill="#000000"><path d="m18.018 40.344c-.047.113-.1.224-.139.339-.2973301.9155861-.2155766 1.9121146.227 2.767.7193605 1.2536161 2.0769127 2.0023712 3.521 1.942.124 0 .251-.025.376-.035v11.643c.0000001 1.6568542 1.3431458 2.9999999 3 2.9999999s2.9999999-1.3431457 3-2.9999999v-11.636c1.5657116.1992365 3.0992255-.5551249 3.897-1.917.4398874-.8471696.5237487-1.8347903.233-2.744-.04-.132-.1-.238-.146-.359 13.15-6.358 18.013-17.035 18.013-25.056 0-8.573-5.71-15.288-13-15.288-4.1592246.00538856-8.1844494 1.47135895-11.373 4.142-.3627088.3040508-.8912912.3040508-1.254 0-3.1885506-2.67064105-7.2137754-4.13661144-11.373-4.142-7.29 0-13 6.715-13 15.288 0 8.021 4.863 18.697 18.018 25.056zm1.882 2.209c-.2064346-.385259-.2475775-.8378308-.114-1.254.014-.041.036-.083.051-.124 1.17.5 2.4.966 3.7 1.4-.2468486.274497-.5529026.4892477-.895.628-.9525759.4602269-2.0973742.1888487-2.742-.65zm5.1 15.447c-.5522847 0-1-.4477153-1-1v-12.275c.3700346-.2079555.7070598-.469824 1-.777.2928785.3083515.6298798.5715496 1 .781v12.271c0 .5522847-.4477153 1-1 1zm5.216-16.7c.1335483.4154031.0927691.8672222-.113 1.252-.6454021.8377977-1.7898371 1.108255-2.742.648-.3410088-.1382297-.6460563-.3523101-.892-.626 1.292-.432 2.5253333-.8986667 3.7-1.4.015.041.037.083.05.126zm-5.216-.347c-8.669-2.724-14.478-7.139-18.092-11.942.54352086.3869384 1.15838042.6622487 1.809.81.24046745.0470894.48496587.0705345.73.07 1.2085128-.0660471 2.3749009-.4666143 3.369-1.157.228-.144.452-.294.676-.443.5526816-.3961906 1.1404669-.7409622 1.756-1.03.5836989-.2780999 1.2516493-.3224629 1.867-.124.4160282.2169856.7856259.5132073 1.088.872.2625912.2764908.5424886.5360139.838.777 1.3765344 1.2023838 3.4464857 1.1431428 4.752-.136.142-.153.28-.333.422-.521.707-.937.863-.937 1.57 0 .142.188.28.368.419.518 1.304585 1.2809249 3.3752827 1.3419175 4.753.14.2963682-.2410815.5769458-.5009497.84-.778.3036914-.3603917.675444-.657386 1.094-.874.6128-.1952566 1.2768763-.1505798 1.858.125.616674.2890652 1.2054826.6341827 1.759 1.031.224.149.448.3.686.45 1.178496.8705358 2.6456526 1.2566485 4.1 1.079.6476427-.147838 1.2594771-.4228236 1.8-.809-3.616 4.803-9.425 9.218-18.094 11.942zm-22.238-20.253c.75803858-.0282169 1.51075229.137332 2.187.481.37608727.2266161.73565338.4795822 1.076.757.76979874.6834294 1.68903939 1.1769561 2.684 1.441 1.4539252.1673355 2.9175813-.2185699 4.1-1.081.252-.157.5-.322.75-.488.5313998-.3808877 1.096794-.7119563 1.689-.989.5799018-.278394 1.2443855-.3241957 1.857-.128.4159697.2209507.7859269.5192924 1.09.879.2644399.2789965.5466992.5405456.845.783 1.380834 1.1988989 3.4505839 1.1375633 4.758-.141.139-.153.274-.331.413-.517.709-.948.867-.948 1.576 0 .139.186.275.364.42.524 1.3067915 1.2724257 3.370517 1.3315383 4.748.136.2994756-.2429025.5827467-.5051287.848-.785.3031144-.3589533.6720735-.6566324 1.087-.877.6126641-.1963729 1.2771604-.1516678 1.858.125.5929023.2773142 1.1589661.6087176 1.691.99.249.166.5.331.754.491.987067.6811168 2.1410627 1.0804173 3.338 1.155.2545799.0002295.5085332-.0252328.758-.076.995243-.2646095 1.9147568-.7584415 2.685-1.442.3370937-.2748083.6929585-.5257515 1.065-.751.6797459-.347449 1.4371202-.5151042 2.2-.487-.4474716 1.6155884-1.0638722 3.17955-1.839 4.666-.4602681.1140219-.9044057.2853609-1.322.51-.4686224.2737569-.9155955.5829941-1.337.925-.5284547.4834509-1.1570601.8443612-1.841 1.057-.9494691.0594235-1.888045-.2292597-2.64-.812-.214-.136-.425-.277-.637-.419-.6575185-.4682698-1.3579919-.8730845-2.092-1.209-1.0674642-.4953666-2.2885438-.543965-3.392-.135-.6748285.3097622-1.2766272.7585554-1.766 1.317-.2038.2173325-.4215983.4211008-.652.61-.5622151.5457424-1.4458645.5785501-2.047.076-.1037317-.116407-.2012025-.2382456-.292-.365-.4949959-.8622746-1.3897099-1.4185599-2.382-1.481-.9930889.0632928-1.8879753.621188-2.382 1.485-.0916123.1279064-.1900901.2507533-.295.368-.6024503.4994636-1.4843882.4649793-2.046-.08-.2295348-.1888139-.4466521-.3922362-.65-.609-.4863523-.5579521-1.0846407-1.0073499-1.756-1.319-1.1057696-.411062-2.3300113-.3628124-3.4.134-.7328784.3358719-1.4323295.7403414-2.089 1.208-.212.142-.423.283-.626.413-.7531476.5848634-1.6930909.8762636-2.645.82-.6865892-.2128278-1.31764371-.5747963-1.848-1.06-.4194872-.3403813-.86408519-.6485913-1.33-.922-.41983161-.2250797-.86588201-.3973868-1.328-.513-.77682566-1.4857927-1.39458419-3.0494625-1.843-4.665zm10.238-18.7c3.6885894.00431031 7.2584337 1.3043339 10.086 3.673 1.1061211.93116158 2.7218789.93116158 3.828 0 2.8275663-2.3686661 6.3974106-3.66868969 10.086-3.673 6.168 0 11 5.837 11 13.288-.0035259 1.1519125-.1079248 2.3013033-.312 3.435-1.2503225-.1126847-2.5067196.1358181-3.62.716-.4596683.2731332-.8991316.5789195-1.315.915-.5351704.4883747-1.1716924.8523943-1.864 1.066-.9504283.0594013-1.889666-.23162-2.64-.818-.235-.147-.467-.3-.7-.456-.6354749-.4522292-1.3125239-.8429889-2.022-1.167-1.0701785-.4964929-2.2945496-.5440273-3.4-.132-.666691.3155438-1.2613473.7648548-1.747 1.32-.2055287.2199104-.4253392.4260245-.658.617-.5613392.5403945-1.4381179.5756203-2.041.082-.1-.108-.193-.236-.29-.366-.4926275-.8716189-1.3918633-1.4357568-2.391-1.5-.9987732.0645716-1.8975632.6286657-2.39 1.5-.1.13-.191.258-.283.359-.603633.5000455-1.4865594.466898-2.051-.077-.2314737-.1905395-.4502716-.3959756-.655-.615-.4865861-.5559233-1.0822442-1.0059004-1.75-1.322-1.1059302-.4100544-2.3297719-.3618206-3.4.134-.7086229.3244389-1.3849685.7151791-2.02 1.167-.232.154-.464.309-.7.454-.7520683.5869313-1.6928112.8785793-2.645.82-.69189927-.2138615-1.32804199-.5778594-1.863-1.066-.41916397-.3386385-.86232537-.6464452-1.326-.921-1.1103515-.5768659-2.36293728-.8229405-3.609-.709-.20269059-1.1341573-.30575031-2.2838754-.308-3.436 0-7.451 4.832-13.288 11-13.288z" id="L1_472"/><path d="m5 16.288c.55228475 0 1-.4477153 1-1 0-4.565 2.618-9.288 7-9.288.5522847 0 1-.44771525 1-1s-.4477153-1-1-1c-5.634 0-9 5.739-9 11.288 0 .5522847.44771525 1 1 1z" id="L1_473"/><path d="m37 6c4.382 0 7 4.723 7 9.288 0 .5522847.4477153 1 1 1s1-.4477153 1-1c0-5.549-3.366-11.288-9-11.288-.5522847 0-1 .44771525-1 1s.4477153 1 1 1z" id="L1_475"/></g><path d="m49 0h-38c-6.07216255.0071635-10.9928365 4.92783745-11 11v38c.0071635 6.0721626 4.92783745 10.9928365 11 11h38c6.0721626-.0071635 10.9928365-4.9278374 11-11v-38c-.0071635-6.07216255-4.9278374-10.9928365-11-11zm7.617 6.228c-2.4113333 1.06933333-4.7836667 2.209-7.117 3.419-1.2579854-1.06396259-2.8524129-1.64752305-4.5-1.647h-13.047c4.5331891-2.40990706 9.2689994-4.41759885 14.153-6h2.894c3.0973845.00472694 5.9746996 1.60185028 7.617 4.228zm1.383 4.772v7.821c-2.0306667.9866667-4.0306667 2.0246667-6 3.114v-6.935c.0005405-1.3523165-.393569-2.6753984-1.134-3.807 2.1686667-1.118 4.3753333-2.17233333 6.62-3.163.338117.9537935.5119178 1.95805099.514 2.97zm0 36.069c-2.05 1.326-4.085 2.667-6.1 4l-.871.576c-3.027 2.012-6.2 4.158-9 6.353h-16.122c1.7378985-2.1438424 3.6392525-4.1498428 5.687-6h13.406c3.8641657-.0044086 6.9955914-3.1358343 7-7v-7.712c1.9786667-1.298 3.9786667-2.582 6-3.852zm-48-8.248c6.0173023-5.2443537 12.3953103-10.0598551 19.087-14.411 6.4566184-4.4235218 13.1317243-8.5193668 20-12.272.5923895.8369224.9113074 1.8366408.913 2.862v8.065c-5.366 3.069-10.49 6.4-15.337 9.654-7.5 5.032-15.185 10.43-21.577 16.9-1.867115-.7751205-3.0845879-2.5973847-3.086-4.619zm-8-23.472c5.0063215-5.0084679 10.5203643-9.48223911 16.453-13.349h21.761c-4.2714225 1.68421473-8.4089554 3.68996712-12.377 6h-12.837c-3.8641657.00440864-6.99559136 3.1358343-7 7v8.533c-2.11444188 2.1832903-4.11700452 4.4722194-6 6.858zm22.559-5.349c-5.2288578 3.3395006-10.1066643 7.1991291-14.559 11.52v-6.52c.0033061-2.7600532 2.2399468-4.9966939 5-5zm-22.559 23.678c1.86871201-2.5195087 3.87160582-4.9366678 6-7.241v11.5c-2.08 1.9006667-4.08 3.9093333-6 6.026zm8-9.333c5.4768945-5.5583996 11.6537446-10.3805447 18.375-14.345h16.625c.8898411.0046452 1.7618985.249609 2.524.709-6.892 3.721-13.41 7.917-19.551 12.041-6.2618759 4.0822961-12.2644095 8.5492124-17.973 13.375zm25.777 10.035c4.514-3.03 9.265-6.131 14.223-9.013v10.842c-1.522 1-3.048 2.006-4.542 3-5.135967 3.2365966-10.0292576 6.8431466-14.641 10.791h-15.289c6.064-5.9 13.235-10.917 20.249-15.62zm10.809 6.477c1.121-.743 2.275-1.5 3.414-2.252v6.395c-.0033061 2.7600532-2.2399468 4.9966939-5 5h-11.122c4.0600495-3.2850621 8.3028391-6.3376137 12.708-9.143zm11.414-9.795c-2.018 1.2586667-4.018 2.5353333-6 3.83v-10.659c1.9693333-1.1066667 3.9693333-2.166 6-3.178zm-47-29.062h3.873c-4.5660698 3.16548936-8.87087387 6.69213146-12.873 10.546v-1.546c.00606096-4.96805005 4.03194995-8.99393904 9-9zm-9 47v-2.048c1.88680898-2.209087 3.88963062-4.3163892 6-6.313v4.361c.00231638 2.5527288 1.39308844 4.9020991 3.63 6.132-1.7230865 1.841701-3.32954287 3.7891537-4.81 5.831-2.96110342-1.5529169-4.81724267-4.6193976-4.82-7.963zm6.755 8.7c1.5140779-2.0477809 3.1574242-3.9967495 4.92-5.835.4363531.0871369.8800396.1323427 1.325.135h13.679c-1.9174862 1.8597876-3.6874856 3.8658316-5.294 6h-12.385c-.7578097-.0028174-1.51218815-.1019451-2.245-.295zm40.245.3h-3.666c2.2-1.608 4.539-3.185 6.8-4.686l.866-.575c1.644-1.088 3.309-2.176 4.975-3.262-.2533585 4.7737159-4.19457 8.5164396-8.975 8.523z" transform="matrix(0.6666666865348816 0 0 0.6666666865348816 67.5 67.5)" id="L1_477" fill="#1695a3"/><g transform="matrix(0.6666666865348816 0 0 0.6666666865348816 242.5 67.5)" id="L1_482" fill="#000000"><path d="m13.364 17.243-3-1.174c-.3350561-.1416459-.72060257-.0901734-1.0067654.1344083-.28616283.2245818-.42779953.5868449-.36985145.9459662.05794807.3591214.30633955.6584493.64861685.7816255l3 1.174c.1159171.0456772.239408.0690862.364.069.4804664-.000489.8926732-.3426073.9816753-.8147585.0890021-.4721513-.1703606-.9408626-.6176753-1.1162415z" id="L1_478" fill="#acf0f2"/><path d="m17.636 21.062 7.911 3.095c.3350561.1416459.7206026.0901734 1.0067654-.1344083.2861628-.2245818.4277995-.5868449.3698515-.9459662-.0579481-.3591214-.3063396-.6584493-.6486169-.7816255l-7.911-3.1c-.5144532-.2010316-1.0944684.0530468-1.2955.5675s.0530468 1.0944684.5675 1.2955z" id="L1_479" fill="#acf0f2"/><path d="m.541 43.888 29 15c.2867539.1513783.6302559.1491258.915-.006v.006l29-15c.3916865-.2028738.6041811-.6384268.523-1.072l-6-32h-.01c-.0702949-.39378-.3697815-.7070589-.76-.795l-16.917-3.671c-1.4965237-2.00746713-3.1106859-3.92449344-4.834-5.741-.8178055-.77524862-2.0991945-.77524862-2.917 0-1.7232383 1.81594567-3.3370807 3.73265491-4.833 5.74l-16.92 3.674c-.39167823.0886587-.6915307.4042928-.76.8h-.01l-6 32c-.07784872.4312469.13414735.8629407.523 1.065zm30.459 12.469v-35.675l21.24-8.311 5.64 30.083zm-.977-54.357c1.7230677 1.79734954 3.3239749 3.70794805 4.792 5.719.0274347.04640684.0585336.09054731.093.132.4691438.57826182.8382384 1.23093733 1.092 1.931-.023.888-2.411 2.218-6 2.218-3.607 0-6-1.343-6-2.209.2525193-.70656932.6246025-1.36448003 1.1-1.945.0303368-.03703541.0580699-.0761291.083-.117 1.4768921-2.02088049 3.0942235-3.93527958 4.84-5.729zm-7.741 6.7c-.1635633.33425475-.2594022.69755883-.282 1.069 0 2.412 3.439 4.231 8 4.231s8-1.819 8-4.231c-.0233781-.36939825-.1191974-.73058925-.282-1.063l11.835 2.569-19.553 7.651-19.553-7.651zm-14.522 3.671 21.24 8.311v35.675l-26.88-13.903z" id="L1_480" fill="#acf0f2"/><path d="m11.459 42.284-5.238-2.709c-.49042886-.2543271-1.09417287-.0629289-1.3485.4275s-.06292886 1.0941729.4275 1.3485l5.238 2.71c.3174305.1639849.6982332.1461661.9989636-.0467443.3007303-.1929104.4757001-.5316047.459-.8885-.0167002-.3568954-.2225331-.6777708-.5399636-.8417557z" id="L1_481" fill="#acf0f2"/><path d="m26.486 50.057-10.027-5.186c-.3184961-.1760321-.7074774-.1651504-1.0156342.0284122s-.4868383.5392471-.4665393.9025858.2363738.686969.5641735.845002l10.027 5.186c.1413199.0739359.298508.1123749.458.112.4611607.0000722.8625691-.3152271.9717347-.7632807.1091656-.4480537-.102224-.9126576-.5117347-1.1247193z" id="L1_483" fill="#acf0f2"/></g><g transform="matrix(1.1666666269302368 0 0 1.1666666269302368 315 140)" id="L1_490" fill="#000000"><path d="m30.28 41.228c-.2435531-1.1573358-.8894684-2.1908712-1.823-2.917l-6.029-4.689c1.0363608-.5554745 1.6490206-1.668588 1.5638789-2.8413397-.0851417-1.1727518-.8521536-2.1857011-1.9578789-2.5856603l4.334-4.953c1.1045864-1.2690046 1.3005989-3.0922006.491-4.567l-3.2-5.8 2.689-9.417c.2140197-.76221303-.0417126-1.57892865-.6522232-2.08296237-.6105106-.50403371-1.4608735-.60050342-2.1687768-.24603763l-4.979 2.49-1.192-2.157c-.721646-1.19328162-2.1703931-1.73195035-3.4963298-1.29999471-1.3259368.43195564-2.1793863 1.72062004-2.0596702 3.10999471l.3 3.565-10.067 5.028c-.86466705.4267725-1.46779892 1.24736-1.617 2.2-.15375629.9507187.15748296 1.9175312.837 2.6l11.947 11.95c-.81785.6067356-1.2679711 1.5900699-1.1927226 2.6056211.0752486 1.0155513.6653812 1.9218067 1.5637226 2.4013789l-6.029 4.689c-.93353161.7261288-1.57944694 1.7596642-1.823 2.917l-2.682 12.742c-.31040968 1.4745243.06072302 3.0104028 1.01018185 4.18049.94945882 1.1700872 2.37597505 1.8495823 3.88281815 1.84951h20.14c1.5068431.0000723 2.9333593-.6794228 3.8828182-1.84951.9494588-1.1700872 1.3205915-2.7059657 1.0101818-4.18049zm-15.28-9.228c-.5522847 0-1-.4477153-1-1s.4477153-1 1-1h6c.5522847 0 1 .4477153 1 1s-.4477153 1-1 1zm9.418-29.085-2.134 7.473-2.772-5.021zm-9.945-.86c.4296032-.16385508.9148114.00491299 1.15.4l1.609 2.914v.013c0 .007.01.01.013.016l7.86 14.238c.4051997.7375656.3069646 1.6496343-.246 2.284l-5.313 6.08h-3.628l-2.13-24.9c-.0619446-.4699001.2293961-.91435416.685-1.045zm-12.083 12.332c.04935999-.3170344.24959763-.5903569.537-.733l9.356-4.673 1.487 17.375-11.1-11.1c-.23019971-.2262181-.33482912-.5509429-.28-.869zm28.01 42.503c-.5683104.7039915-1.4252483 1.1122323-2.33 1.11h-20.14c-.90414089.0001037-1.76010711-.4075678-2.32982789-1.1096283-.56972077-.7020606-.79242514-1.6236228-.60617211-2.5083717l2.683-12.742c.1462276-.6943575.53384616-1.3144055 1.094-1.75l7.572-5.89h3.314l7.572 5.89c.5601538.4355945.9477724 1.0556425 1.094 1.75l2.683 12.742c.1879568.8846298-.0348613 1.806788-.606 2.508z" id="L1_484" fill="#eb7f00"/><path d="m14.293 38.293-2 2c-.2599566.2510745-.3642126.6228779-.2726972.9725073.0915155.3496295.3645604.6226744.7141899.7141899.3496294.0915154.7214328-.0127406.9725073-.2726972l2-2c.3789722-.3923789.3735524-1.0160848-.0121814-1.4018186s-1.0094397-.3911536-1.4018186-.0121814z" id="L1_485" fill="#eb7f00"/><path d="m13 45c-.5522847 0-1 .4477153-1 1v2c0 .5522847.4477153 1 1 1s1-.4477153 1-1v-2c0-.5522847-.4477153-1-1-1z" id="L1_486" fill="#eb7f00"/><path d="m13 51c-.5522847 0-1 .4477153-1 1v3c0 .5522847.4477153 1 1 1s1-.4477153 1-1v-3c0-.5522847-.4477153-1-1-1z" id="L1_487" fill="#eb7f00"/><path d="m21.707 38.293c-.3923789-.3789722-1.0160848-.3735524-1.4018186.0121814s-.3911536 1.0094397-.0121814 1.4018186l2 2c.3923789.3789722 1.0160848.3735524 1.4018186-.0121814s.3911536-1.0094397.0121814-1.4018186z" id="L1_488" fill="#eb7f00"/><path d="m23 45c-.5522847 0-1 .4477153-1 1v2c0 .5522847.4477153 1 1 1s1-.4477153 1-1v-2c0-.5522847-.4477153-1-1-1z" id="L1_489" fill="#eb7f00"/><path d="m23 51c-.5522847 0-1 .4477153-1 1v3c0 .5522847.4477153 1 1 1s1-.4477153 1-1v-3c0-.5522847-.4477153-1-1-1z" id="L1_491" fill="#eb7f00"/></g><path d="m34.7 1.536c-.556721-.52249445-1.3632035-.68060542-2.076-.407-7.435 2.809-31.76 14.551-32.624 47.727-.00353145.1500759.02653524.2990426.088.436.212.478 5.534 11.708 28.912 11.708s28.7-11.23 28.912-11.708c.0579804-.1289113.0879731-.2686499.088-.41 0-25.011-15.1-33.822-19.727-35.927-.7404881-.3119852-1.4087237-.7732482-1.963-1.355-2.275-2.5-1.645-6.112-1.067-8.038.2211995-.72360694.010432-1.51000652-.543-2.026zm-28.613 27.495c2.02589468-4.8143047 4.8540383-9.2499322 8.364-13.118 4.0221151 3.3685556 8.6331649 5.9632882 13.6 7.653 4.7819763 1.6240346 9.7987778 2.4494131 14.849 2.443 2.2714382-.0025778 4.5397065-.1696817 6.787-.5 2.4455213 3.7394478 4.1839849 7.8959655 5.129 12.263-16.464 3.167-33.27.155-48.729-8.741zm49.128 10.7c.4713349 2.6799258.7278175 5.3932237.767 8.114-18.1481515.5905106-36.1346164-3.5811633-52.17-12.1.42580817-1.6364308.93446352-3.2501766 1.524-4.835 11.1381551 6.5215567 23.7934107 10.0043382 36.7 10.1 4.4236953-.0068756 8.8366601-.4354814 13.179-1.28zm-26.215 19.269c-20.366 0-26.212-8.963-26.993-10.35.09719715-3.6663549.53711315-7.315582 1.314-10.9 15.2151873 7.997858 32.1488315 12.1710344 49.338 12.159.841 0 1.683-.032 2.526-.052-2.21 2.857-9.021 9.143-26.185 9.143zm19.366-35.343c-6.6237487.8269985-13.3487311.148826-19.674-1.984-4.6938033-1.5970688-9.0542006-4.0430131-12.864-7.216 1.17-1.185 2.358-2.273 3.543-3.256 2.0879876 2.3727303 4.7549117 4.1642308 7.741 5.2 3.2957381 1.1182238 6.7603294 1.6568595 10.24 1.592 1.579 0 3.251-.1 5.005-.269 2.2633206 1.6953944 4.2849361 3.6914412 6.009 5.933zm-13.539-10.71c.737276.7833444 1.628616 1.4057162 2.618 1.828.7521307.3451439 1.4863948.7279625 2.2 1.147-4.0083384.3208652-8.0405079-.1566867-11.863-1.405-2.634608-.9091361-4.9918022-2.4792217-6.846-4.56 3.7794525-2.89861063 7.9514501-5.245717 12.391-6.971-.699 2.331-1.434 6.724 1.5 9.961z" transform="matrix(1.1269134256214692 -0.3019555423350627 0.3019555423350627 1.1269134256214692 132.09417656790237 149.94930676697984)" id="L1_493" fill="#1695a3"/><g transform="matrix(1.5 0 0 1.5 217.5 217.5)" id="L1_497" fill="#000000"><path d="m4.52 17.78c-2.26178406 9.168554 2.98805132 18.5170603 11.994 21.358l-.037.045c-.6945884.7137889-1.231512 1.5655078-1.576 2.5-.2967144.9158507-.2142398 1.9123888.229 2.767.718697 1.2537917 2.0761035 2.002679 3.52 1.942.124 0 .248-.025.372-.035v11.643c0 1.6568542 1.3431458 3 3 3s3-1.3431458 3-3v-11.636c1.5667775.2007766 3.1019641-.5538266 3.9-1.917.4413056-.8489922.5244902-1.839285.231-2.75-.3435693-.9397722-.88163-1.7964439-1.579-2.514l-.047-.058c8.8064643-2.8257626 14.0273645-11.8770828 12.064-20.915.0443417-.006315.0881359-.0160099.131-.029 3.50437-1.587162 5.6110668-5.2276162 5.2410982-9.05682177-.3699686-3.8292056-3.134655-6.99899844-6.8780629-7.88589769-3.7434078-.88689926-7.6363768.70554214-9.6850353 3.96171946-3.8448988-1.48727451-8.0875303-1.59015832-12-.291-2.0885594-3.04926562-5.8314628-4.50830382-9.4327201-3.67701158-3.60125734.83129225-6.32594861 3.78327047-6.86666144 7.43946123-.54071283 3.65619075 1.21289777 7.27046355 4.41938154 9.10855035zm1.48-7.78c-.00495605-1.1854965.69187612-2.26164688 1.77562566-2.74218143 1.08374953-.48053454 2.34913324-.27443067 3.22437434.52518143-1.58823192 1.22808866-2.96127777 2.7116405-4.063 4.39-.60017311-.5630441-.93953791-1.3500662-.937-2.173zm16.022 49c-.5522847 0-1-.4477153-1-1v-12.273c.3700519-.2083356.7070702-.4705358 1-.778.2935483.3067798.6304594.5688966 1 .778v12.273c0 .5522847-.4477153 1-1 1zm3.363-19.328c.209.278.436.544.665.811.5154551.5191645.9205774 1.1372226 1.191 1.817.134742.4148347.0942875.8666971-.112 1.251-.6455673.8374666-1.7895201 1.1082272-2.742.649-.6793788-.259692-1.2013158-.8177774-1.415-1.513-.1348836-.4103745-.5180268-.6877501-.95-.6877501s-.8151164.2773756-.95.6877501c-.2142408.6955737-.7369421 1.2536873-1.417 1.513-.9508091.457285-2.0918702.1880646-2.738-.646-.2076229-.3905502-.2466383-.8489807-.108-1.269.2724596-.6739951.6774622-1.2864297 1.191-1.801.226-.264.452-.529.663-.807 2.2209847.4330174 4.5049215.43064 6.725-.007zm11.97-27.016c-1.0123173-1.6650969-2.2866979-3.15592638-3.774-4.415.7267186-.99929449 1.9938453-1.44778017 3.1873862-1.12814061 1.193541.31963955 2.0669317 1.34137244 2.1969654 2.57011189.1300338 1.22873942-.510152 2.41064952-1.6103516 2.97302872zm-1.375-9.656c3.2567737-.00346782 6.0845369 2.24235302 6.8185644 5.41533119.7340276 3.17297821-.8201448 6.43250331-3.7475644 7.85966881-.2149933-.634016-.4657283-1.2553446-.751-1.861 1.650329-.8524114 2.6850047-2.5565378 2.68-4.414.003418-2.157072-1.3790471-4.07234761-3.4274426-4.74840001-2.0483956-.6760524-4.2993234.04005836-5.5805574 1.77540001-.5571567-.36877407-1.1343803-.70629464-1.729-1.011 1.3012227-1.88621967 3.4454942-3.01348527 5.737-3.016zm2.02 19c0 8.836556-7.163444 16-16 16s-16-7.163444-16-16 7.163444-16 16-16c8.8322157.01046962 15.9895304 7.1677843 16 16zm-29-19c2.1397612.00218276 4.160582.98458764 5.484 2.666-.6197838.28721631-1.2227547.60940178-1.806.965-1.3884279-1.5249416-3.57203751-2.03841803-5.49456487-1.29204851-1.92252736.74636951-3.18766477 2.59872918-3.18343513 4.66104851-.00299851 1.5395794.71168473 2.9926085 1.933 3.93-.30800067.612813-.58045178 1.2428562-.816 1.887-2.55966075-1.713432-3.69849952-4.8987115-2.80541285-7.84661052.89308666-2.947899 3.60820356-4.96559568 6.68841285-4.97038948z" id="L1_494"/><path d="m22 36c6.065 0 11-3.813 11-8.5 0-3.3-2.434-6.255-6.239-7.658-.8626272-1.8262514-2.7441238-2.9493796-4.761-2.842-2.0168762-.1073796-3.8983728 1.0157486-4.761 2.842-3.805 1.403-6.239 4.358-6.239 7.658 0 4.687 4.935 8.5 11 8.5zm0-17c1.626 0 3 .916 3 2s-1.374 2-3 2-3-.916-3-2 1.374-2 3-2zm-4.815 3.02c.6434161 1.5931276 2.10774 2.7058602 3.815 2.899v2.081h-1c-.5522847 0-1 .4477153-1 1s.4477153 1 1 1h4c.5522847 0 1-.4477153 1-1s-.4477153-1-1-1h-1v-2.081c1.7074934-.1933235 3.1718739-1.306483 3.815-2.9 2.577 1.181 4.185 3.247 4.185 5.481 0 3.584-4.037 6.5-9 6.5s-9-2.916-9-6.5c0-2.234 1.608-4.3 4.185-5.48z" id="L1_495"/><path d="m14 19c1.6568542 0 3-1.3431458 3-3s-1.3431458-3-3-3-3 1.3431458-3 3 1.3431458 3 3 3zm0-4c.5522847 0 1 .4477153 1 1s-.4477153 1-1 1-1-.4477153-1-1 .4477153-1 1-1z" id="L1_496"/><path d="m30 19c1.6568542 0 3-1.3431458 3-3s-1.3431458-3-3-3-3 1.3431458-3 3 1.3431458 3 3 3zm0-4c.5522847 0 1 .4477153 1 1s-.4477153 1-1 1-1-.4477153-1-1 .4477153-1 1-1z" id="L1_499"/></g><g transform="matrix(1.0512611066442439 -0.426186938150463 0.426186938150463 1.0512611066442439 59.10817461766654 214.66468458077344)" id="L1_503" fill="#000000"><path d="m14.807 40.007c-.3981589.5015547-.70577 1.0687231-.909 1.676-.2967144.9158507-.2142398 1.9123888.229 2.767.718697 1.2537917 2.0761035 2.002679 3.52 1.942.125 0 .25-.025.375-.035v11.643c0 1.6568542 1.3431458 3 3 3s3-1.3431458 3-3v-11.636c1.5641466.1979436 3.0955405-.5563427 3.892-1.917.4407132-.8494812.524222-1.8397082.232-2.751-.2034839-.6169181-.5153675-1.1925989-.921-1.7 9.3433815-3.0614212 15.0757714-12.4600098 13.5209845-22.168445-1.5547869-9.70843525-9.9355426-16.84683123-19.7676831-16.83733005-9.8321405.00950119-18.19908433 7.16408112-19.73510508 16.87550315-1.53602074 9.7114219 4.21452293 19.0989142 13.56380368 22.1422719zm6.215 18.993c-.5522847 0-1-.4477153-1-1v-12.274c.3695469-.2086889.7064695-.4704778 1-.777.2929486.3079972.6299464.5708554 1 .78v12.271c0 .5522847-.4477153 1-1 1zm5.217-16.7c.1340159.4153511.0932198.8673571-.113 1.252-.6453463.8378089-1.7895642 1.1086322-2.742.649-.679207-.2599474-1.2010495-.8179317-1.415-1.513-.1348836-.4103745-.5180268-.6877501-.95-.6877501s-.8151164.2773756-.95.6877501c-.214239.6953485-.7369957 1.2531524-1.417 1.512-.9508091.457285-2.0918702.1880646-2.738-.646-.544-1.091.191-2.031 1-2.977 2.706585.5668407 5.5015253.5641163 8.207-.008.4861283.4952684.8664974 1.0841941 1.118 1.731zm1.888-4.776c-1.6747423-.8804189-2.5008588-2.8160073-1.9779721-4.6343826.5228868-1.8183753 2.2509823-3.019482 4.1375819-2.8758116s3.4128861 1.5926082 3.6543902 3.4691942c-1.6530297 1.7161601-3.6288693 3.0887807-5.814 4.039zm10.873-16.524c-.0051246 1.6024605-.2250842 3.1969996-.654 4.741-.4301895.1639563-.885685.2516036-1.346.259-1.6589706.0082272-3.1508369-1.008448-3.7499226-2.5554927-.5990857-1.5470448-.181034-3.3033267 1.0508058-4.4145521s3.0217649-1.3467284 4.4991168-.5919552c.1279993.8481011.1948384 1.7043097.2 2.562zm-12.4-17.1c2.5611581.84478791 4.8999959 2.25376341 6.844 4.123-.6978005 1.30166212-2.0560772 2.1129012-3.53298 2.1100939-1.4769028-.0028072-2.8320857-.81920392-3.5249329-2.12350934-.6928471-1.30430542-.6106069-2.88426141.2139129-4.10958456zm-1.965-.53c-.9190273 1.85408982-.8134425 4.0516738.279104 5.8091158s3.016537 2.8245803 5.085896 2.8208842c1.91856-.0105587 3.7175517-.9336327 4.845-2.486 1.613643 1.9470359 2.7981285 4.2127564 3.476 6.649-2.3168327-.532463-4.7293446.3550563-6.148758 2.2620163-1.4194133 1.9069599-1.5772711 4.4726928-.4023314 6.5392714s3.4604578 3.2431462 5.8250894 2.9987123c-.5516725 1.293204-1.253132 2.5172341-2.09 3.647-.9540479-2.2450948-3.1723881-3.6890914-5.6115143-3.6527342-2.4391261.0363571-4.6134425 1.5458296-5.5001516 3.8183624-.8867091 2.2725327-.3092796 4.8556964 1.4606659 6.5343718-6.8059415 1.9310862-14.1108143-.3260925-18.641-5.76 2.9865964-1.2291924 4.4585999-4.6068434 3.3257761-7.6313074-1.13282384-3.024464-4.46155313-4.6039834-7.5207761-3.5686926 0-.117-.018-.229-.018-.346.00200488-1.9117242.31024345-3.8107844.913-5.625 1.66591744 1.5454901 4.06254069 2.0160288 6.1891327 1.2151374 2.126592-.8008914 3.6174262-2.7354774 3.849988-4.9959498.2325618-2.26047244-.8331443-4.45808028-2.7521207-5.6751876 3.9641931-2.59496278 8.7952725-3.51299373 13.435-2.553zm-21.45 20.067c.5615007-.2883039 1.18380994-.4381382 1.815-.437 2.01939032-.0034396 3.72313973 1.502052 3.96828201 3.5065106.24514228 2.0044587-1.0455803 3.8761697-3.00628201 4.3594894-1.47010512-2.2372355-2.41911317-4.7760114-2.777-7.429zm6.215-16.174c1.8148873.67279431 2.8858965 2.55035119 2.5412527 4.4550004-.3446437 1.9046493-2.00568201 3.2878457-3.9412527 3.2819996-1.29226326-.0020521-2.50421734-.6272044-3.255-1.679 1.10240871-2.3278768 2.68950759-4.39332143 4.655-6.058z" id="L1_500" fill="#999999"/><path d="m17 28c-2.209139 0-4 1.790861-4 4s1.790861 4 4 4 4-1.790861 4-4-1.790861-4-4-4zm0 6c-1.1045695 0-2-.8954305-2-2s.8954305-2 2-2 2 .8954305 2 2-.8954305 2-2 2z" id="L1_501" fill="#999999"/><path d="m19 11c1.6568542 0 3-1.34314575 3-3s-1.3431458-3-3-3-3 1.34314575-3 3 1.3431458 3 3 3zm0-4c.5522847 0 1 .44771525 1 1s-.4477153 1-1 1-1-.44771525-1-1 .4477153-1 1-1z" id="L1_502" fill="#999999"/><path d="m14 20c0 3.8659932 3.1340068 7 7 7s7-3.1340068 7-7-3.1340068-7-7-7c-3.8641657.0044086-6.9955914 3.1358343-7 7zm12 0c0 2.7614237-2.2385763 5-5 5s-5-2.2385763-5-5 2.2385763-5 5-5c2.7600532.0033061 4.9966939 2.2399468 5 5z" id="Shape" fill="#999999"/></g></defs><g fi:class="KUsePattern"><pattern id="pattern_L1_498" width="350" height="350" patternUnits="userSpaceOnUse"><use xlink:href="#L1_498" x="-350" y="-350"/><use xlink:href="#L1_498" x="0" y="-350"/><use xlink:href="#L1_498" x="350" y="-350"/><use xlink:href="#L1_498" x="-350" y="0"/><use xlink:href="#L1_498" x="0" y="0"/><use xlink:href="#L1_498" x="350" y="0"/><use xlink:href="#L1_498" x="-350" y="350"/><use xlink:href="#L1_498" x="0" y="350"/><use xlink:href="#L1_498" x="350" y="350"/></pattern><rect x="0" y="0" width="100%" height="100%" fill="url(#pattern_L1_498)"/></g><g fi:class="KUsePattern"><pattern id="pattern_L1_471" width="350" height="350" patternUnits="userSpaceOnUse"><use xlink:href="#L1_471" x="-350" y="-350"/><use xlink:href="#L1_471" x="0" y="-350"/><use xlink:href="#L1_471" x="350" y="-350"/><use xlink:href="#L1_471" x="-350" y="0"/><use xlink:href="#L1_471" x="0" y="0"/><use xlink:href="#L1_471" x="350" y="0"/><use xlink:href="#L1_471" x="-350" y="350"/><use xlink:href="#L1_471" x="0" y="350"/><use xlink:href="#L1_471" x="350" y="350"/></pattern><rect x="0" y="0" width="100%" height="100%" fill="url(#pattern_L1_471)"/></g><g fi:class="KUsePattern"><pattern id="pattern_L1_474" width="350" height="350" patternUnits="userSpaceOnUse"><use xlink:href="#L1_474" x="-350" y="-350"/><use xlink:href="#L1_474" x="0" y="-350"/><use xlink:href="#L1_474" x="350" y="-350"/><use xlink:href="#L1_474" x="-350" y="0"/><use xlink:href="#L1_474" x="0" y="0"/><use xlink:href="#L1_474" x="350" y="0"/><use xlink:href="#L1_474" x="-350" y="350"/><use xlink:href="#L1_474" x="0" y="350"/><use xlink:href="#L1_474" x="350" y="350"/></pattern><rect x="0" y="0" width="100%" height="100%" fill="url(#pattern_L1_474)"/></g><g fi:class="KUsePattern"><pattern id="pattern_L1_482" width="350" height="350" patternUnits="userSpaceOnUse"><use xlink:href="#L1_482" x="-350" y="-350"/><use xlink:href="#L1_482" x="0" y="-350"/><use xlink:href="#L1_482" x="350" y="-350"/><use xlink:href="#L1_482" x="-350" y="0"/><use xlink:href="#L1_482" x="0" y="0"/><use xlink:href="#L1_482" x="350" y="0"/><use xlink:href="#L1_482" x="-350" y="350"/><use xlink:href="#L1_482" x="0" y="350"/><use xlink:href="#L1_482" x="350" y="350"/></pattern><rect x="0" y="0" width="100%" height="100%" fill="url(#pattern_L1_482)"/></g><g fi:class="KUsePattern"><pattern id="pattern_L1_477" width="350" height="350" patternUnits="userSpaceOnUse"><use xlink:href="#L1_477" x="-350" y="-350"/><use xlink:href="#L1_477" x="0" y="-350"/><use xlink:href="#L1_477" x="350" y="-350"/><use xlink:href="#L1_477" x="-350" y="0"/><use xlink:href="#L1_477" x="0" y="0"/><use xlink:href="#L1_477" x="350" y="0"/><use xlink:href="#L1_477" x="-350" y="350"/><use xlink:href="#L1_477" x="0" y="350"/><use xlink:href="#L1_477" x="350" y="350"/></pattern><rect x="0" y="0" width="100%" height="100%" fill="url(#pattern_L1_477)"/></g><g fi:class="KUsePattern" opacity="0.91"><pattern id="pattern_L1_463" width="350" height="350" patternUnits="userSpaceOnUse"><use xlink:href="#L1_463" x="-350" y="-350"/><use xlink:href="#L1_463" x="0" y="-350"/><use xlink:href="#L1_463" x="350" y="-350"/><use xlink:href="#L1_463" x="-350" y="0"/><use xlink:href="#L1_463" x="0" y="0"/><use xlink:href="#L1_463" x="350" y="0"/><use xlink:href="#L1_463" x="-350" y="350"/><use xlink:href="#L1_463" x="0" y="350"/><use xlink:href="#L1_463" x="350" y="350"/></pattern><rect x="0" y="0" width="100%" height="100%" fill="url(#pattern_L1_463)"/></g><g fi:class="KUsePattern"><pattern id="pattern_L1_490" width="350" height="350" patternUnits="userSpaceOnUse"><use xlink:href="#L1_490" x="-350" y="-350"/><use xlink:href="#L1_490" x="0" y="-350"/><use xlink:href="#L1_490" x="350" y="-350"/><use xlink:href="#L1_490" x="-350" y="0"/><use xlink:href="#L1_490" x="0" y="0"/><use xlink:href="#L1_490" x="350" y="0"/><use xlink:href="#L1_490" x="-350" y="350"/><use xlink:href="#L1_490" x="0" y="350"/><use xlink:href="#L1_490" x="350" y="350"/></pattern><rect x="0" y="0" width="100%" height="100%" fill="url(#pattern_L1_490)"/></g><g fi:class="KUsePattern" opacity="0.9"><pattern id="pattern_L1_493" width="350" height="350" patternUnits="userSpaceOnUse"><use xlink:href="#L1_493" x="-350" y="-350"/><use xlink:href="#L1_493" x="0" y="-350"/><use xlink:href="#L1_493" x="350" y="-350"/><use xlink:href="#L1_493" x="-350" y="0"/><use xlink:href="#L1_493" x="0" y="0"/><use xlink:href="#L1_493" x="350" y="0"/><use xlink:href="#L1_493" x="-350" y="350"/><use xlink:href="#L1_493" x="0" y="350"/><use xlink:href="#L1_493" x="350" y="350"/></pattern><rect x="0" y="0" width="100%" height="100%" fill="url(#pattern_L1_493)"/></g><g fi:class="KUsePattern" opacity="0.67"><pattern id="pattern_L1_497" width="350" height="350" patternUnits="userSpaceOnUse"><use xlink:href="#L1_497" x="-350" y="-350"/><use xlink:href="#L1_497" x="0" y="-350"/><use xlink:href="#L1_497" x="350" y="-350"/><use xlink:href="#L1_497" x="-350" y="0"/><use xlink:href="#L1_497" x="0" y="0"/><use xlink:href="#L1_497" x="350" y="0"/><use xlink:href="#L1_497" x="-350" y="350"/><use xlink:href="#L1_497" x="0" y="350"/><use xlink:href="#L1_497" x="350" y="350"/></pattern><rect x="0" y="0" width="100%" height="100%" fill="url(#pattern_L1_497)"/></g><g fi:class="KUsePattern"><pattern id="pattern_L1_503" width="350" height="350" patternUnits="userSpaceOnUse"><use xlink:href="#L1_503" x="-350" y="-350"/><use xlink:href="#L1_503" x="0" y="-350"/><use xlink:href="#L1_503" x="350" y="-350"/><use xlink:href="#L1_503" x="-350" y="0"/><use xlink:href="#L1_503" x="0" y="0"/><use xlink:href="#L1_503" x="350" y="0"/><use xlink:href="#L1_503" x="-350" y="350"/><use xlink:href="#L1_503" x="0" y="350"/><use xlink:href="#L1_503" x="350" y="350"/></pattern><rect x="0" y="0" width="100%" height="100%" fill="url(#pattern_L1_503)"/></g></svg>